<svg xmlns="http://www.w3.org/2000/svg" viewBox="0 0 22.91 41.38"><defs><style>.cls-1{fill:#b3b3b3;}</style></defs><title>phone_grey</title><g id="Layer_2" data-name="Layer 2"><g id="ARTWORK"><path class="cls-1" d="M.32,3.47,0,37.71a3.5,3.5,0,0,0,3.47,3.53l15.58.14a3.5,3.5,0,0,0,3.54-3.46l.32-34.24A3.51,3.51,0,0,0,19.44.14L3.85,0A3.5,3.5,0,0,0,.32,3.47ZM9.61,37.41a1.69,1.69,0,1,1,1.67,1.7A1.69,1.69,0,0,1,9.61,37.41ZM5.55,7.85A2.64,2.64,0,0,1,8.21,5.24L15,5.3A2.66,2.66,0,0,1,17.6,8l-.22,23.53a2.66,2.66,0,0,1-2.67,2.61L8,34a2.64,2.64,0,0,1-2.62-2.66Z"/></g></g></svg>