<svg xmlns="http://www.w3.org/2000/svg" viewBox="0 0 37.99 32.35"><defs><style>.cls-1{fill:#b3b3b3;}</style></defs><title>prop_grey</title><g id="Layer_2" data-name="Layer 2"><g id="ARTWORK"><path class="cls-1" d="M2.27,13.55C6.3,10.3,17.16.62,17.16.62a4,4,0,0,1,4.57.22,63.41,63.41,0,0,1,5.21,4.48c2.33,2.09,4.64,4.21,6.94,6.33,1.4,1.29,4,2.89,4.1,5,.07,1.21-1.09,1.6-2.08,1.79a5.86,5.86,0,0,0-2.79,1c-.82.71-.79,1.87-.76,2.87s0,2,0,3l0,4.25v.38a2.27,2.27,0,0,1-2.25,2.28H29.05l-3,0c-3,0-2.75-3.06-2.75-3.06v-.89h0l-.07-9a1.85,1.85,0,0,0-1.87-1.84l-4.76,0a1.86,1.86,0,0,0-1.85,1.87v0l0,5.7h0v2.39l0,1.77s.26,3.08-2.72,3.1l-3,0h-.5v0H8A2.27,2.27,0,0,1,5.7,30.09l0-2.76c0-5.51,0-6.75,0-6.76,0-2.64-3.36-2-4.91-2.88C-1.24,16.58,1.29,14.34,2.27,13.55Z"/></g></g></svg>