<svg xmlns="http://www.w3.org/2000/svg" viewBox="0 0 40.32 31.64"><defs><style>.cls-1{fill:#b3b3b3;}</style></defs><title>womens_grey</title><g id="Layer_2" data-name="Layer 2"><g id="ARTWORK"><path class="cls-1" d="M32.06,21.38a1.81,1.81,0,0,0-1.7.11C28,22.89,25.1,20.8,24,19.82c-.32-.26-.51-.44-.51-.44L6,.55A1.66,1.66,0,0,0,3.7.42,11.9,11.9,0,0,0,.43,5.58a7.68,7.68,0,0,0,1.22,7.3,1.66,1.66,0,0,1,.36.9L3.37,30.1A1.68,1.68,0,0,0,5,31.64H5a1.69,1.69,0,0,0,1.68-1.52L8.1,16.31s0-.52.31-.64a.6.6,0,0,1,.58.12,3.73,3.73,0,0,1,.64.52l9.12,12.15.2.22a9.45,9.45,0,0,0,6,3h9.2A7,7,0,0,0,40,29.08a1.65,1.65,0,0,0,.33-1V26.54a1.69,1.69,0,0,0-.93-1.5Z"/></g></g></svg>