<svg xmlns="http://www.w3.org/2000/svg" viewBox="0 0 53.08 21.69"><defs><style>.cls-1{fill:#b3b3b3;}</style></defs><title>car_grey</title><g id="Layer_2" data-name="Layer 2"><g id="ARTWORK"><path class="cls-1" d="M53.07,14v-.69c0-.25,0-.5,0-.69s-.05-.25-.07-.37a4,4,0,0,0-.24-.71,4,4,0,0,0-.57-.93,4.7,4.7,0,0,0-.49-.51,5.9,5.9,0,0,0-.58-.44,8,8,0,0,0-1.6-.8l-.13,0-.21-.08c-.31-.11-.63-.21-.94-.3l-.38-.1-.62-.18L46.54,8,46.33,8l-.83-.21-.27-.06-.47-.11L43,7.19c-1.05-.22-2.06-.41-2.82-.55L39,6.42a1.59,1.59,0,0,1-.41-.16c-.13-.07-.26-.16-.38-.24L38.1,6c-.26-.16-.51-.33-.75-.5s-.72-.5-1.07-.76l-1.19-.9c-2.18-1.63-4.36-3.23-7-3.68H28l-.41,0-.2,0h0l-.29,0-.24,0h-4l-1,0H21.7l-.88.05h-.15l-1,.1-.22,0c-.33.05-.65.1-1,.17h0c-.3.06-.58.12-.84.19S17,.72,16.75.8L15.94,1l-.55.2-.51.2-.38.18-.21.09-.17.08-.41.2c-1,.48-2.06,1.1-3.83,2-.66.27-1.23.47-1.75.64l-.79.23L7,4.88l-.88.18-.64.08q-.3,0-.6.06L3.8,5.32a10,10,0,0,0-1.27.22,3.32,3.32,0,0,0-.77.26A2.31,2.31,0,0,0,1.41,6l-.21.15a3.36,3.36,0,0,0-.29.24l-.23.25A3.48,3.48,0,0,0,0,9v5.27a5.41,5.41,0,0,0,0,.59c0,.06,0,.12,0,.18s0,.23,0,.34,0,.12,0,.18l0,.13a.58.58,0,0,0,0,.14l0,.16c0,.08.05.15.07.22a1,1,0,0,0,0,.1s0,0,0,0l.06.13s0,0,0,.06l0,0a.3.3,0,0,0,0,.08l.09.15.05.06,0,0A.63.63,0,0,0,.78,17l0,0,0,0,0,0L1,17.2l.05.05.17.12h0l.15.08,0,0,.11,0,.06,0H4.71a3.27,3.27,0,0,1,2,1.18c.1.1.18.2.25.28s.22.27.22.27h0a5.49,5.49,0,0,0,.44.52,6,6,0,0,0,1,.87,5.43,5.43,0,0,0,.57.35,5.36,5.36,0,0,0,1.89.6,4.92,4.92,0,0,0,.67,0,5.41,5.41,0,0,0,2.26-.5A6.08,6.08,0,0,0,16,19.84a5.59,5.59,0,0,0,.45-.52s0,0,0,0c.14-.16.3-.31.46-.46a5.93,5.93,0,0,1,.56-.46c.2-.13.39-.26.6-.37a3.24,3.24,0,0,1,.92-.28,2.58,2.58,0,0,1,.29,0l.74,0a0,0,0,0,0,0,0l1.88,0H33.1a3.62,3.62,0,0,1,1.26.22,4.53,4.53,0,0,1,1.43.8l.34.29.13.14.31.33a.18.18,0,0,0,0,.07l0,0,0,.06h0a6.61,6.61,0,0,0,1.42,1.23,5.51,5.51,0,0,0,3,.87c.22,0,.43,0,.64,0a5.86,5.86,0,0,0,.63-.12,5.56,5.56,0,0,0,1.18-.43,6.15,6.15,0,0,0,2-1.59l0,0h0a3.65,3.65,0,0,1,.27-.3l0-.06a2.73,2.73,0,0,1,.23-.25l0,0,.07-.07.13-.13a.46.46,0,0,1,.07-.07l.11-.1h0l.18-.16.15-.11,0,0h0L47,18l.12-.06,0,0,.19-.11.16-.05.16-.06h0l.17,0H51.3a1.76,1.76,0,0,0,.4-.06,1.54,1.54,0,0,0,.42-.17,1.15,1.15,0,0,0,.37-.3l.14-.16a1.9,1.9,0,0,0,.36-.57,2.11,2.11,0,0,0,.09-.62V15.6C53.08,15.07,53.08,14.55,53.07,14Z"/></g></g></svg>