<svg xmlns="http://www.w3.org/2000/svg" viewBox="0 0 30.75 30.98"><defs><style>.cls-1{fill:#b3b3b3;}</style></defs><title>pets_grey</title><g id="Layer_2" data-name="Layer 2"><g id="ARTWORK"><path class="cls-1" d="M0,24.31A6.71,6.71,0,0,0,6.73,31l17.33-.05a6.73,6.73,0,0,0,6.69-6.72l-1.29-14c0-.12,0-.23,0-.35a1.53,1.53,0,0,0,0-.6l-.33-7.93A1.72,1.72,0,0,0,27,0L19.75,3.23a1.58,1.58,0,0,0-.64.3h-.5a10.78,10.78,0,0,0-3.31-.48,10.74,10.74,0,0,0-3.3.5h-.17a1.68,1.68,0,0,0-.65-.3L3.63.12a1.7,1.7,0,0,0-2,1.29L1.33,9a6,6,0,0,0-.13,1.34ZM27.8,20l-4.44,0a.47.47,0,0,1-.47-.47.48.48,0,0,1,.48-.47H27.8a.48.48,0,0,1,0,.95Zm-5.15,1.35a.47.47,0,0,1,.58-.33l4.27,1.21a.47.47,0,0,1,.33.58.48.48,0,0,1-.59.33L23,21.91A.47.47,0,0,1,22.65,21.33Zm-5.06-6.76a1.86,1.86,0,1,1,1.86,1.85A1.87,1.87,0,0,1,17.59,14.57Zm-3.66,2.87h2.85a.53.53,0,0,1,0,.74l-1.05,1.06a.54.54,0,0,1-.75,0l-1.05-1A.53.53,0,0,1,13.93,17.44ZM9.38,14.6a1.86,1.86,0,1,1,1.86,1.84A1.85,1.85,0,0,1,9.38,14.6ZM3.77,22.28,8,21.05a.47.47,0,0,1,.58.32.47.47,0,0,1-.32.59L4,23.19a.48.48,0,0,1-.59-.32A.49.49,0,0,1,3.77,22.28ZM3,19.59a.48.48,0,0,1,.47-.48l4.44,0a.47.47,0,1,1,0,.94l-4.44,0A.47.47,0,0,1,3,19.59Z"/></g></g></svg>