<svg xmlns="http://www.w3.org/2000/svg" viewBox="0 0 35.61 35.58"><defs><style>.cls-1{fill:#b3b3b3;}</style></defs><title>sports_grey</title><g id="Layer_2" data-name="Layer 2"><g id="ARTWORK"><path class="cls-1" d="M23.32,21.52l-4.26-3.8L30.33,5.13a17.75,17.75,0,0,1,5.28,13A13.26,13.26,0,0,0,23.32,21.52ZM29,4A17.76,17.76,0,0,0,15.59.14a13.17,13.17,0,0,1-1.95,12.74l4.1,3.66ZM5.29,30.45,16.55,17.86,12.46,14.2A13.21,13.21,0,0,1,0,17.55,17.75,17.75,0,0,0,5.29,30.45Zm1.32,1.18a17.81,17.81,0,0,0,13.52,3.8,13.18,13.18,0,0,1,2-12.58L17.88,19ZM21.9,35.1A17.8,17.8,0,0,0,35.49,19.93a11.45,11.45,0,0,0-10.84,2.78l7,6.25-1.18,1.32-7-6.25A11.45,11.45,0,0,0,21.9,35.1ZM11.13,13,4,6.61A17.63,17.63,0,0,0,.12,15.75,11.45,11.45,0,0,0,11.13,13ZM13.81.45A17.77,17.77,0,0,0,5.14,5.28l7.18,6.42A11.47,11.47,0,0,0,13.81.45Z"/></g></g></svg>