<svg xmlns="http://www.w3.org/2000/svg" viewBox="0 0 33.57 28.4"><defs><style>.cls-1{fill:#b3b3b3;}</style></defs><title>jobs_grey</title><g id="Layer_2" data-name="Layer 2"><g id="ARTWORK"><path class="cls-1" d="M19.1,16.43H33.57V26a2.44,2.44,0,0,1-2.44,2.43H2.45A2.44,2.44,0,0,1,0,26V16.43H14.47V18a.93.93,0,0,0,.92.93h2.8A.92.92,0,0,0,19.1,18Zm12-10.38H2.45A2.44,2.44,0,0,0,0,8.48v7H14.47v-4a.93.93,0,0,1,.92-.93h2.8a.92.92,0,0,1,.91.93v4H33.57v-7A2.44,2.44,0,0,0,31.13,6.05ZM23.28,3.7V1.57A1.69,1.69,0,0,0,21.45,0H12.13a1.71,1.71,0,0,0-1.85,1.57V3.7a.91.91,0,0,0,1.81,0V1.81h9.38V3.7a.91.91,0,0,0,1.81,0Z"/></g></g></svg>