<svg xmlns="http://www.w3.org/2000/svg" viewBox="9173 801 36 42"><defs><style>.a{fill:#b3b3b3;}</style></defs><g transform="translate(8559 -8)"><path class="a" d="M16.544,25.5A3.375,3.375,0,0,0,13.2,28.887a3.24,3.24,0,0,0,3.344,3.387,3.265,3.265,0,0,0,3.344-3.387A3.306,3.306,0,0,0,16.544,25.5Z" transform="translate(615.512 812.29)"/><path class="a" d="M29.313,23.032V17.726a1.146,1.146,0,0,1,.446-.79c.111-.113.223-.113.334-.226A6.145,6.145,0,0,0,32.1,8.242a.936.936,0,0,0-.78-.452.8.8,0,0,0-.78.9V10.5a.619.619,0,0,1-.446.677l-2.786,1.694a.941.941,0,0,1-.78,0L23.74,11.177a.929.929,0,0,1-.446-.677V8.581A.808.808,0,0,0,22.96,7.9a.857.857,0,0,0-1.115.226l-.557,1.129a6.074,6.074,0,0,0,3.121,7.677.757.757,0,0,1,.446.79v5.194H13.486V21.565L13.04,9.145V7.79h.892a10.685,10.685,0,0,1,.446-3.726c.223-.9,1.226-1.129,2.452-1.129a13.833,13.833,0,0,1,4.235.677h.111c.111,0,.111,0,.223-.113s.111-.339,0-.339C19.282,1.581,18.5,0,12.706,0H8.582A2.9,2.9,0,0,0,6.13,1.355H5.015V.677A.646.646,0,0,0,4.347,0H3.455C3.121,0,2.9.226,2.9.677v6.1a.53.53,0,0,0,.557.565h.892A.53.53,0,0,0,4.9,6.774V6.661c.111-.339.334-.565.669-.452A4.685,4.685,0,0,1,8.359,8.016h.669V9.484L8.693,23.032H0V39.065A2.922,2.922,0,0,0,3.009,42H33.1A2.9,2.9,0,0,0,36,39.065V23.032ZM24.52,33.984l-.223.79h-1a2.463,2.463,0,0,1-.557.9l.557.9-.557.565-.892-.452a2.422,2.422,0,0,1-.892.565l.111,1.016-.669.339-.669-.79-.334.113-.557.113-.223.9h-.78l-.223-.9a3.915,3.915,0,0,1-1.115-.226L15.6,38.5l-.669-.339.111-1.016c-.334-.226-.557-.452-.892-.677l-.892.452-.557-.565.557-.9c-.223-.339-.334-.565-.557-.9h-1l-.111-.677.78-.565a3.889,3.889,0,0,1-.111-1.129l-.892-.339.111-.79,1-.226.334-1.016-.669-.677.446-.677,1,.226a2.621,2.621,0,0,1,.78-.79l-.334-.9.669-.452.78.565a3.934,3.934,0,0,1,1-.452l.111-1.016.78-.113.446.9h1.115l.446-.9.78.226.111,1.016a3.934,3.934,0,0,1,1,.452l.78-.565.669.452L22.4,28c.223.226.446.565.669.79l1-.226.334.677-1,.565.334,1.016,1,.226.111.79-.892.339a3.889,3.889,0,0,1-.111,1.129Z" transform="translate(614 809)"/></g></svg>