<svg xmlns="http://www.w3.org/2000/svg" viewBox="0 0 43.56 39.07"><defs><style>.cls-1{fill:#b3b3b3;}</style></defs><title>games_grey</title><g id="Layer_2" data-name="Layer 2"><g id="ARTWORK"><path class="cls-1" d="M39.5,10.11C35.72,4.93,30.83-.7,24.93.07,19.82.74,18.82,4,18,5.11a7.72,7.72,0,0,1-2.1,2.48L13.54,8.87a8.08,8.08,0,0,1-3.24.35c-1.35,0-4.61-1-8,2.9-3.94,4.46-2,11.67.17,17.69s4.7,9.47,8.34,9.25,4.65-8.63,5.15-10.26,2.91-2.24,6.11-3.94l2.4-1.27c3.2-1.7,5-3.37,6.68-2.87s9.16,4.36,11.38,1.47S43.28,15.28,39.5,10.11ZM14.24,18.24a.59.59,0,0,1-.25.81l-2.26,1.21,1.2,2.26a.6.6,0,0,1-.25.82l-1.06.57a.62.62,0,0,1-.82-.25L9.59,21.39,7.33,22.6a.62.62,0,0,1-.82-.25l-.57-1.07a.62.62,0,0,1,.25-.82l2.27-1.2L7.26,17a.59.59,0,0,1,.25-.81l1.06-.57a.6.6,0,0,1,.82.25l1.2,2.27,2.27-1.21a.61.61,0,0,1,.82.25ZM25.48,5.93a1.66,1.66,0,1,1-.68,2.25A1.67,1.67,0,0,1,25.48,5.93Zm.19,7.43a1.66,1.66,0,1,1,.69-2.25A1.67,1.67,0,0,1,25.67,13.36Zm4.49,1.37a1.66,1.66,0,1,1,.69-2.25A1.66,1.66,0,0,1,30.16,14.73Zm1.37-4.49A1.66,1.66,0,1,1,32.22,8,1.66,1.66,0,0,1,31.53,10.24Z"/></g></g></svg>